PathFileType	4	(X/Y/Z)	example_trial.trc
DataRate	CameraRate	NumFrames	NumMarkers	Units	OrigDataRate	OrigDataStartFrame	OrigNumFrames
100	100	9	20	mm	100	1162	2322
Frame#	Time	Can1			Can2			Can3			ElbowLE			ElbowME			Elbow3			Elbow4			Elbow5			Elbow6			ForearmRS			ForearmUL			Forearm3			Forearm4			HandRS			HandUL			Hand3			Hand4			Hand5			Hand6			Hand7			
		X1	Y1	Z1	X2	Y2	Z2	X3	Y3	Z3	X4	Y4	Z4	X5	Y5	Z5	X6	Y6	Z6	X7	Y7	Z7	X8	Y8	Z8	X9	Y9	Z9	X10	Y10	Z10	X11	Y11	Z11	X12	Y12	Z12	X13	Y13	Z13	X14	Y14	Z14	X15	Y15	Z15	X16	Y16	Z16	X17	Y17	Z17	X18	Y18	Z18	X19	Y19	Z19	X20	Y20	Z20	

1162	11.61	435.35512388331585	59.235497322493856	214.78740926074	411.6411754648631	67.465438333376	217.58160905886558	433.2497696880796	24.600191974762797	206.0488007611029	-0.23968795908789176	-69.77222172629642	0.46224998988348254	-1.809731379003722	89.98322159939651	-0.6448551782680312	104.07379756628936	-34.415278719077	6.01759879045664	102.32588719086472	34.77529620272959	4.858011267962281	84.90482996460698	34.44200252445145	57.69357216667914	86.07104579083236	-33.13126751543414	58.86006879812438	169.304594852661	-14.338867025458793	103.31398484521856	198.14376681374605	14.554001663459633	14.969576228083733	128.29864127689768	-23.89798926693336	3.9994516377422116	120.30313940989998	40.54782458170534	22.83691988133517	304.62567489870867	-7.970265698815602	131.82286151819682	321.36469954175755	9.534484588985846	68.35104233526474	404.16443391980886	-18.219786237506543	90.90398411088636	437.36899629617807	-10.345227525046063	100.61774613897464	417.06103329278415	-25.457797522262926	127.33374327995999	423.1336848103536	-28.28490905734236	153.71711513278171	391.8850360011453	-32.36123528349863	140.52523885141377	
1163	11.62	435.3192903589652	59.093255269067384	214.89390521891795	411.6051169177444	67.32265504285925	217.69354576055605	433.24709352022387	24.472898310112736	206.0922685738323	-0.22559132553528904	-69.73815356667149	0.44913670445916903	-1.382907320740852	90.33757161055577	0.7027951833144951	104.06561597382796	-34.41854699635802	6.0158771711669425	102.3308771629903	34.758937223448626	4.854002165473885	84.90743360004498	34.43845600586177	57.694616987501064	86.06661082343139	-33.13252715841578	58.86367812994461	169.30958885399826	-14.42635688775943	103.2723775589645	198.4470828637743	14.28962166350984	15.4852061625195	128.30579144818623	-23.84190675058523	3.9668173265437936	120.28610991918497	40.55960056500361	22.91510779585674	304.6418191362641	-7.596744149425227	131.93812109136746	321.3648069398911	9.639388309992317	68.41086056374417	404.17788755908856	-18.175482393017315	90.88221788385677	437.4136997651894	-10.2687298209297	100.58121966639783	417.07670956930826	-25.47557670340635	127.28297113058417	422.7517571567603	-28.426201781815553	153.51503824365153	391.90085405695964	-32.39662647987572	140.4519108320515	
1164	11.63	435.30415023410757	58.91656171544411	215.01306881566785	411.59092220153536	67.12058983346617	217.83027767051112	433.2300186310951	24.3078559246932	206.14004833237405	-0.23496695400627488	-69.77102575019109	0.4698282992635746	-1.2052466366061632	90.40884201395008	0.8565083633188877	104.07113403158517	-34.42964635250027	6.031448641103344	102.20208391992091	35.594749914999824	5.521473094148146	84.90824812110765	34.443045032825225	57.69605564400995	86.06969236441611	-33.13261387361637	58.86098769411119	169.32315072027063	-14.546787699923682	103.25042229068995	197.53567392004857	13.354624323174654	14.38176578531974	128.3182390769076	-23.773160845756536	3.9129225908975798	120.24855204756886	40.607220202779345	23.036372604693227	304.633143562962	-8.103087621510053	131.80919117182873	321.3541538725794	9.590778384639474	68.38772891785497	404.1821076579165	-18.100785595556697	90.83185825630764	437.37276270834633	-10.43006426732001	100.70356736606331	417.0915902432736	-25.47684691138102	127.21988046420637	423.1753694378752	-28.399679048331063	153.6129142563116	391.913615827929	-32.44236910787835	140.37270507682237	
1165	11.64	435.2741473094171	58.665761636073974	215.14647413652665	411.56874041428006	66.85166365215349	218.00675120844795	433.2242797728909	24.076671900543737	206.2045686611186	-0.2360979238493499	-69.75959139502883	0.45305634615213863	-1.8135921409075655	89.9944780637073	-0.6550385849310041	104.0682586807303	-34.432847809687075	6.013513249258742	102.31397341237746	34.87313065821672	4.923421710124247	84.9036530030027	34.434578754385505	57.690536398580804	86.06749725963654	-33.13368212874268	58.85920100552967	169.3451541735192	-14.677921349645404	103.19438072795495	198.30223565019628	13.904013045161868	14.837705674820278	128.3268586955805	-23.683152635121694	3.8669448919715528	120.21047406258187	40.639843014216616	23.104486528902683	304.6182454745558	-8.201584728354014	131.8125303091696	321.367632368847	9.61924834359115	68.3648994464422	404.196493647281	-18.010514395182508	90.76680921036755	437.42208739294205	-10.113214187953947	100.50478702998296	417.13014621657913	-25.503362017430895	127.14457021539961	423.21082287206764	-28.462734924783547	153.50792164315413	391.85427076379744	-32.951809750575805	140.5695418861255	
1166	11.65	435.2600709808455	58.44432322134091	215.29347071590507	411.52987893010567	66.59222716423831	218.17985273323492	433.23251986358065	23.867747853180777	206.2763609729744	-0.22820368839331984	-69.72295788301413	0.4268144941772343	-1.7973801194767702	89.97659664841956	-0.6400792865661361	104.06729543997898	-34.43293109815897	6.007708788424555	102.32719765037666	34.74626128842425	4.8511906437208445	84.90775403148186	34.431404873115	57.680552162333214	86.0603046913281	-33.14204547218078	58.85272121262956	169.34983415028967	-14.780583662862114	103.16271100692742	197.6158923291864	15.996411479170906	15.037384884944396	128.33577666775076	-23.63155785087235	3.8150356594853623	120.16799847782987	40.66133034076839	23.16678363234289	304.63264310546896	-8.320398970331635	131.75411898510444	321.36148850730524	9.620393498856034	68.35423510376607	404.18250060246555	-17.929783901628877	90.70179235330068	437.4568509743013	-10.050125330812726	100.46270520645837	417.1384922405209	-25.513407358904516	127.06325954992873	423.2280396940038	-28.531385071758443	153.4371693479309	391.9651729615627	-32.56994209401183	140.1889898386075	
1167	11.66	435.20251774182015	58.28511516343559	215.4398306757746	411.4824331843783	66.4130159444404	218.32455670226386	433.2027226272945	23.72695581918162	206.35888866009805	-0.2450337020520834	-69.75333363246972	0.4426253410601374	-1.8028535462779578	89.97303416108666	-0.6470396250607908	104.05409138656279	-34.44599243468582	6.017721927591847	102.21838746033589	35.26827990651984	5.3134577160990535	84.89754974020974	34.42601610946603	57.69100725087621	86.05675869128497	-33.143700241646094	58.85975580168808	169.34038394556882	-14.872914029814739	103.14567721739654	197.65614862758744	14.611116689517768	15.037048215698132	128.34503643769307	-23.571275575842968	3.776886646141122	120.15223996376086	40.71170085519373	23.26971539444976	304.68070078298234	-8.383101011502195	131.71152687623433	321.1374667308722	10.925732850818623	69.22350931136067	404.2034862438049	-17.901778222011494	90.73259766662696	437.4153887031961	-10.037197280437162	100.51837020442727	417.1482542925535	-25.5484128240715	127.07315810282407	423.20808482462115	-28.595601735466417	153.43552368635656	391.95393064015605	-32.61594670075711	140.17813935163642	
1168	11.67	435.13949169242	58.12388525884731	215.58201917928494	411.4072366306778	66.24951588926085	218.47062898696362	433.1507186041308	23.58722641293153	206.43884021447613	-0.24780379110153916	-69.73911748163533	0.4370417112207331	-0.1668179128110694	90.82954649072082	1.6939845322902745	104.04917823766787	-34.453372183774945	6.01374535292846	102.31857203443042	34.748718623180075	4.848359228236582	84.89538936960203	34.42233151691199	57.69188585982479	86.0438389594717	-33.14653229628087	58.85834354761132	169.34341379746795	-14.97065743939297	103.12407754327322	196.74778605045378	14.037792312652902	13.964720253626558	128.3517626673879	-23.53468950174047	3.766472714114263	120.12873239203716	40.69498871537737	23.310390594491814	304.60909201910596	-8.475128494312457	131.77974465296052	321.33425970834423	9.76779173308843	68.51035500664896	404.18754912528766	-17.87249313173963	90.7411691286185	437.4056619645472	-10.001265102386125	100.53340055838609	417.1370162955804	-25.584846127134476	127.07675042454409	423.1968975086699	-28.661108834734044	153.4290228135602	391.94203179093165	-32.66664902996157	140.15652558448923	
1169	11.68	435.0874441510605	57.95907325882172	215.71253130852716	411.3509977455836	66.05964191060717	218.6046601013528	433.13017324402534	23.418449120925178	206.52214428107686	-0.2567931824955192	-69.70634173205787	0.4184677218883868	-1.8029239224233455	89.99262777175193	-0.6362049238917777	104.03036205951102	-34.461292305942756	6.0223267753950775	102.10712545195855	35.584127388113366	5.675777544099645	84.8811672230608	34.42202939954655	57.700292479231045	86.03073287412508	-33.148175635127096	58.863059150974316	169.34854094106186	-15.039281811438237	103.11914566375272	196.532222415295	14.012486870501792	14.432913128779207	128.35599163586636	-23.48710140232383	3.7175399962917304	120.05262544823896	42.00910741303386	24.40862971025126	304.5983129366912	-8.535668868214813	131.76350201547447	321.25707312310783	10.136988598648772	68.76075889008185	404.1945053229118	-17.82648655874729	90.72866285057098	437.4127979766614	-9.92148601472411	100.51382527370751	417.1268501716068	-25.60645819921766	127.03985010095613	423.1917363126115	-28.717157427963258	153.40631506043096	391.87688591408335	-33.181128319193064	140.4154125218461	
1170	11.69	435.06735373601765	57.801147033310706	215.8191050247995	411.3300353121374	65.89980143762193	218.73058426947313	433.1077242068555	23.26044735975196	206.56527880214298	-0.25497396491217916	-69.69164614447403	0.401681321705478	-1.5367926075733243	90.2751582217255	0.5595827874731002	104.0238816942978	-34.4552797637095	6.021077567214737	102.07631621993242	35.741152618859864	5.8124408121752165	84.8779752984838	34.414443960334864	57.697898059924235	86.0235843906729	-33.14553861364757	58.860050054634684	169.3429899594826	-15.121963400603589	103.09524340671929	196.67253021861546	13.295353990969613	14.474456884357464	128.35087986717528	-23.44433715491822	3.691665289116962	120.02972018611898	41.99351499794358	24.44790479182626	304.620904198069	-8.147092874378295	131.8718448609241	320.87517052549424	12.097199120061765	70.07003377153302	404.178711530104	-17.78988435674966	90.69968817890268	437.35344805050306	-10.009089242722347	100.60212188127815	417.1189749558176	-25.6302725196674	127.00118963036647	423.1992099987284	-28.779694748124335	153.36629179010743	391.897352807732	-33.22395943712732	140.3540152180821	
